<?xml version="1.0" standalone="no"?><!DOCTYPE svg PUBLIC "-//W3C//DTD SVG 1.1//EN" "http://www.w3.org/Graphics/SVG/1.1/DTD/svg11.dtd"><svg t="1615443178924" class="icon" viewBox="0 0 1024 1024" version="1.1" xmlns="http://www.w3.org/2000/svg" p-id="4443" xmlns:xlink="http://www.w3.org/1999/xlink" width="32" height="32"><defs><style type="text/css"></style></defs><path d="M902.6 917H122.2c-39.1 0-70.8-31.7-70.8-70.8V253.7c0-39.1 31.7-70.8 70.8-70.8h780.5c39.1 0 70.8 31.7 70.8 70.8v592.5c0 39.1-31.8 70.8-70.9 70.8z" fill="#242424" p-id="4444"></path><path d="M784.7 353.6m-54.7 0a54.7 54.7 0 1 0 109.4 0 54.7 54.7 0 1 0-109.4 0Z" fill="#FFFFFF" p-id="4445"></path><path d="M827.1 707.3L684.4 492.1c-2.6-10.4-9.2-19.9-19.3-25.7-19.6-11.3-44.6-4.6-55.9 15l-79.9 138.4-130.8-226.4c-3.4-7.9-9.2-14.8-17.2-19.4-19.6-11.3-44.6-4.6-55.9 15l-95.6 165.7h0.2L54.9 857.9c-11.3 19.6-4.6 44.6 15 55.9 19.6 11.3 44.6 4.6 55.9-15l214.4-371.3c0.7-1.1 1.3-2.3 1.8-3.5l18.7-32.4 131.7 228.1c6.4 11 17.1 18 28.7 19.9 17.1 4 35.6-3.4 44.8-19.4l77.8-134.8 112.4 162.8c11.3 19.6 36.4 26.3 55.9 15 19.7-11.3 26.4-36.3 15.1-55.9z" fill="#FFFFFF" p-id="4446"></path></svg>